<svg aria-hidden="true" style="position: absolute; width: 0; height: 0; overflow: hidden;" version="1.1" xmlns="http://www.w3.org/2000/svg" xmlns:xlink="http://www.w3.org/1999/xlink">
<defs>
<symbol id="icon-aperture" viewBox="0 0 24 24">
<script>console.log("XSS")</script>
<path d="M11.422 7l2.223-3.85c1.825 0.337 3.457 1.225 4.719 2.486 0.416 0.416 0.792 0.873 1.121 1.364h-5.194zM7.38 10l-2.222-3.847c0.153-0.179 0.312-0.351 0.478-0.517 1.5-1.5 3.525-2.472 5.775-2.617l-2.592 4.49zM7.958 15h-4.446c-0.332-0.938-0.512-1.948-0.512-3 0-1.43 0.333-2.781 0.926-3.982l2.6 4.504zM17.473 11.478l-1.431-2.478h4.446c0.332 0.938 0.512 1.948 0.512 3 0 1.43-0.333 2.781-0.926 3.982l-2.576-4.462zM12.588 20.981l4.032-6.981 2.222 3.848c-0.153 0.178-0.312 0.351-0.478 0.516-1.5 1.5-3.525 2.472-5.775 2.617zM10.7 22.924c0.046 0.008 0.092 0.014 0.139 0.015 0.381 0.040 0.769 0.061 1.161 0.061 3.037 0 5.789-1.232 7.778-3.222 0.366-0.366 0.706-0.757 1.017-1.171 0.042-0.047 0.079-0.097 0.11-0.149 1.318-1.813 2.095-4.046 2.095-6.458 0-1.539-0.317-3.005-0.888-4.336-0.016-0.044-0.034-0.086-0.055-0.126-0.553-1.244-1.33-2.367-2.279-3.316-1.701-1.701-3.96-2.849-6.478-3.146-0.046-0.008-0.092-0.014-0.139-0.015-0.381-0.040-0.769-0.061-1.161-0.061-3.037 0-5.789 1.232-7.778 3.222-0.366 0.365-0.706 0.757-1.017 1.171-0.042 0.047-0.079 0.097-0.111 0.149-1.317 1.813-2.094 4.046-2.094 6.458 0 1.539 0.317 3.005 0.888 4.336 0.016 0.044 0.034 0.086 0.055 0.126 0.553 1.244 1.33 2.367 2.279 3.316 1.701 1.701 3.96 2.849 6.478 3.146zM12.578 17l-2.223 3.85c-1.825-0.337-3.457-1.225-4.719-2.486-0.416-0.416-0.792-0.873-1.121-1.364h5.194zM15.465 12l-1.732 3h-3.466l-1.732-3 1.732-3h3.466z"></path>
</symbol>
<symbol id="icon-archive" viewBox="0 0 24 24">
<path d="M4 9h16v11h-16zM1 2c-0.552 0-1 0.448-1 1v5c0 0.552 0.448 1 1 1h1v12c0 0.552 0.448 1 1 1h18c0.552 0 1-0.448 1-1v-12h1c0.552 0 1-0.448 1-1v-5c0-0.552-0.448-1-1-1zM2 4h20v3h-20zM10 13h4c0.552 0 1-0.448 1-1s-0.448-1-1-1h-4c-0.552 0-1 0.448-1 1s0.448 1 1 1z"></path>
</symbol>
<symbol id="icon-arrow-down" viewBox="0 0 24 24">
<path d="M18.293 11.293l-5.293 5.293v-11.586c0-0.552-0.448-1-1-1s-1 0.448-1 1v11.586l-5.293-5.293c-0.391-0.391-1.024-0.391-1.414 0s-0.391 1.024 0 1.414l7 7c0.092 0.092 0.202 0.166 0.324 0.217 0.245 0.101 0.521 0.101 0.766 0 0.118-0.049 0.228-0.121 0.324-0.217l7-7c0.391-0.391 0.391-1.024 0-1.414s-1.024-0.391-1.414 0z"></path>
</symbol>
<symbol id="icon-arrow-down-circle" viewBox="0 0 24 24">
<path d="M23 12c0-3.037-1.232-5.789-3.222-7.778s-4.741-3.222-7.778-3.222-5.789 1.232-7.778 3.222-3.222 4.741-3.222 7.778 1.232 5.789 3.222 7.778 4.741 3.222 7.778 3.222 5.789-1.232 7.778-3.222 3.222-4.741 3.222-7.778zM21 12c0 2.486-1.006 4.734-2.636 6.364s-3.878 2.636-6.364 2.636-4.734-1.006-6.364-2.636-2.636-3.878-2.636-6.364 1.006-4.734 2.636-6.364 3.878-2.636 6.364-2.636 4.734 1.006 6.364 2.636 2.636 3.878 2.636 6.364zM11 8v5.586l-2.293-2.293c-0.391-0.391-1.024-0.391-1.414 0s-0.391 1.024 0 1.414l4 4c0.092 0.092 0.202 0.166 0.324 0.217 0.245 0.101 0.521 0.101 0.766 0 0.118-0.049 0.228-0.121 0.324-0.217l4-4c0.391-0.391 0.391-1.024 0-1.414s-1.024-0.391-1.414 0l-2.293 2.293v-5.586c0-0.552-0.448-1-1-1s-1 0.448-1 1z"></path>
</symbol>
<symbol id="icon-arrow-down-left" viewBox="0 0 24 24">
<path d="M17 16h-7.586l8.293-8.293c0.391-0.391 0.391-1.024 0-1.414s-1.024-0.391-1.414 0l-8.293 8.293v-7.586c0-0.552-0.448-1-1-1s-1 0.448-1 1v10c0 0.552 0.448 1 1 1h10c0.552 0 1-0.448 1-1s-0.448-1-1-1z"></path>
</symbol>
<symbol id="icon-arrow-down-right" viewBox="0 0 24 24">
<path d="M16 7v7.586l-8.293-8.293c-0.391-0.391-1.024-0.391-1.414 0s-0.391 1.024 0 1.414l8.293 8.293h-7.586c-0.552 0-1 0.448-1 1s0.448 1 1 1h10c0.136 0 0.265-0.027 0.383-0.076s0.228-0.121 0.324-0.217c0.092-0.092 0.166-0.202 0.217-0.324 0.049-0.118 0.076-0.247 0.076-0.383v-10c0-0.552-0.448-1-1-1s-1 0.448-1 1z"></path>
</symbol>
<symbol id="icon-arrow-left" viewBox="0 0 24 24">
<path d="M12.707 18.293l-5.293-5.293h11.586c0.552 0 1-0.448 1-1s-0.448-1-1-1h-11.586l5.293-5.293c0.391-0.391 0.391-1.024 0-1.414s-1.024-0.391-1.414 0l-7 7c-0.096 0.096-0.168 0.206-0.217 0.324-0.051 0.122-0.076 0.253-0.076 0.383 0 0.256 0.098 0.512 0.293 0.707l7 7c0.391 0.391 1.024 0.391 1.414 0s0.391-1.024 0-1.414z"></path>
</symbol>
</defs>
</svg>
