<svg viewBox="0 0 512 512" xmlns="http://www.w3.org/2000/svg"><rect fill="#fff" height="512" rx="80" width="512"/><path d="m128.39 169.53v-12.26c0-1.88-1.53-3.41-3.41-3.41h-74.94c-1.88 0-3.41 1.53-3.41 3.41v43.6c0 1.88 1.53 3.41 3.41 3.41h53.82c1.51 0 2.73 1.22 2.73 2.73v6.81c0 1.51-1.22 2.73-2.73 2.73h-53.82c-1.88 0-3.41 1.53-3.41 3.41v12.26c0 1.88 1.53 3.41 3.41 3.41h74.95c1.88 0 3.41-1.53 3.41-3.41v-43.6c0-1.88-1.53-3.41-3.41-3.41h-53.82c-1.51 0-2.73-1.22-2.73-2.73v-6.81c0-1.51 1.22-2.73 2.73-2.73h53.82c1.88 0 3.41-1.53 3.41-3.41z" fill="#4f555e"/><path d="m127.76 292.05v-12.26c0-1.88-1.53-3.41-3.41-3.41h-74.94c-1.88 0-3.41 1.53-3.41 3.41v43.6c0 1.88 1.53 3.41 3.41 3.41h53.82c1.51 0 2.73 1.22 2.73 2.73v6.81c0 1.51-1.22 2.73-2.73 2.73h-53.82c-1.88 0-3.41 1.53-3.41 3.41v12.26c0 1.88 1.53 3.41 3.41 3.41h74.95c1.88 0 3.41-1.53 3.41-3.41v-43.6c0-1.88-1.53-3.41-3.41-3.41h-53.82c-1.51 0-2.73-1.22-2.73-2.73v-6.81c0-1.51 1.22-2.73 2.73-2.73h53.82c1.88 0 3.41-1.53 3.41-3.41z" fill="#0b57d0"/><path d="m209.26 155.91-20.34 46.95c-.47 1.09-2.03 1.09-2.5 0l-20.34-46.95c-.54-1.25-1.77-2.05-3.13-2.05h-20.54c-1.47 0-2.46 1.51-1.88 2.86l33.3 76.85c.54 1.25 1.77 2.05 3.13 2.05h21.42c1.36 0 2.59-.81 3.13-2.05l33.3-76.85c.58-1.35-.4-2.86-1.88-2.86h-20.54c-1.36 0-2.59.81-3.13 2.05z" fill="#4f555e"/><path d="m246.94 157.27v65.41c0 1.88 1.53 3.41 3.41 3.41h53.82c1.51 0 2.73 1.22 2.73 2.73v10.9c0 1.51-1.22 2.73-2.73 2.73h-53.82c-1.88 0-3.41 1.53-3.41 3.41v12.26c0 1.88 1.53 3.41 3.41 3.41h74.95c1.88 0 3.41-1.53 3.41-3.41v-100.84c0-1.88-1.53-3.41-3.41-3.41h-74.95c-1.88 0-3.41 1.53-3.41 3.41zm57.23 49.74h-32.7c-1.51 0-2.73-1.22-2.73-2.73v-28.62c0-1.51 1.22-2.73 2.73-2.73h32.7c1.51 0 2.73 1.22 2.73 2.73v28.62c0 1.51-1.22 2.73-2.73 2.73z" fill="#4f555e"/><g fill="#0b57d0"><path d="m168.18 273.65v-26.57c0-1.88-1.53-3.41-3.41-3.41h-14.99c-1.88 0-3.41 1.53-3.41 3.41v107.65c0 1.88 1.53 3.41 3.41 3.41h14.99c1.88 0 3.41-1.53 3.41-3.41v-56.55c0-1.51 1.22-2.73 2.73-2.73h32.7c1.51 0 2.73 1.22 2.73 2.73v56.55c0 1.88 1.53 3.41 3.41 3.41h14.99c1.88 0 3.41-1.53 3.41-3.41v-74.95c0-1.88-1.53-3.41-3.41-3.41h-53.82c-1.51 0-2.73-1.22-2.73-2.73z"/><path d="m246.75 279.79v74.95c0 1.88 1.53 3.41 3.41 3.41h74.95c1.88 0 3.41-1.53 3.41-3.41v-74.95c0-1.88-1.53-3.41-3.41-3.41h-74.95c-1.88 0-3.41 1.53-3.41 3.41zm57.23 59.28h-32.7c-1.51 0-2.73-1.22-2.73-2.73v-38.15c0-1.51 1.22-2.73 2.73-2.73h32.7c1.51 0 2.73 1.22 2.73 2.73v38.15c0 1.51-1.22 2.73-2.73 2.73z"/><path d="m444.2 279.37v56.55c0 1.51-1.22 2.73-2.73 2.73h-21.8c-1.51 0-2.73-1.22-2.73-2.73v-56.55c0-1.88-1.53-3.41-3.41-3.41h-14.99c-1.88 0-3.41 1.53-3.41 3.41v56.55c0 1.51-1.22 2.73-2.73 2.73h-21.8c-1.51 0-2.73-1.22-2.73-2.73v-56.55c0-1.88-1.53-3.41-3.41-3.41h-14.99c-1.88 0-3.41 1.53-3.41 3.41v74.95c0 1.88 1.53 3.41 3.41 3.41h113.1c1.88 0 3.41-1.53 3.41-3.41v-74.95c0-1.88-1.53-3.41-3.41-3.41h-14.99c-1.88 0-3.41 1.53-3.41 3.41z"/></g></svg>