<svg viewBox="0 0 444 88" xmlns="http://www.w3.org/2000/svg"><path d="m52.93 31.16v-7.34c0-1.13-.91-2.04-2.04-2.04h-44.85c-1.13 0-2.04.91-2.04 2.04v26.1c0 1.13.91 2.04 2.04 2.04h32.21c.9 0 1.63.73 1.63 1.63v4.08c0 .9-.73 1.63-1.63 1.63h-32.21c-1.13 0-2.04.91-2.04 2.04v7.34c0 1.13.91 2.04 2.04 2.04h44.85c1.13 0 2.04-.91 2.04-2.04v-26.1c0-1.13-.91-2.04-2.04-2.04h-32.21c-.9 0-1.63-.73-1.63-1.63v-4.08c0-.9.73-1.63 1.63-1.63h32.21c1.13 0 2.04-.91 2.04-2.04z" fill="#4f555e"/><path d="m234.8 31.16v-7.34c0-1.13-.91-2.04-2.04-2.04h-44.85c-1.13 0-2.04.91-2.04 2.04v26.1c0 1.13.91 2.04 2.04 2.04h32.21c.9 0 1.63.73 1.63 1.63v4.08c0 .9-.73 1.63-1.63 1.63h-32.21c-1.13 0-2.04.91-2.04 2.04v7.34c0 1.13.91 2.04 2.04 2.04h44.85c1.13 0 2.04-.91 2.04-2.04v-26.1c0-1.13-.91-2.04-2.04-2.04h-32.21c-.9 0-1.63-.73-1.63-1.63v-4.08c0-.9.73-1.63 1.63-1.63h32.21c1.13 0 2.04-.91 2.04-2.04z" fill="#0b57d0"/><path d="m101.33 23.01-12.18 28.1c-.28.66-1.21.66-1.5 0l-12.18-28.1c-.32-.75-1.06-1.23-1.87-1.23h-12.29c-.88 0-1.47.9-1.12 1.71l19.93 45.99c.32.75 1.06 1.23 1.87 1.23h12.82c.81 0 1.55-.48 1.87-1.23l19.93-45.99c.35-.81-.24-1.71-1.12-1.71h-12.29c-.81 0-1.55.48-1.87 1.23z" fill="#4f555e"/><path d="m123.88 23.82v39.15c0 1.13.91 2.04 2.04 2.04h32.21c.9 0 1.63.73 1.63 1.63v6.52c0 .9-.73 1.63-1.63 1.63h-32.21c-1.13 0-2.04.91-2.04 2.04v7.34c0 1.13.91 2.04 2.04 2.04h44.85c1.13 0 2.04-.91 2.04-2.04v-60.35c0-1.13-.91-2.04-2.04-2.04h-44.85c-1.13 0-2.04.91-2.04 2.04zm34.25 29.77h-19.57c-.9 0-1.63-.73-1.63-1.63v-17.13c0-.9.73-1.63 1.63-1.63h19.57c.9 0 1.63.73 1.63 1.63v17.13c0 .9-.73 1.63-1.63 1.63z" fill="#4f555e"/><g fill="#0b57d0"><path d="m260.08 20.15v-15.9c0-1.13-.91-2.04-2.04-2.04h-8.97c-1.13 0-2.04.91-2.04 2.04v64.43c0 1.13.91 2.04 2.04 2.04h8.97c1.13 0 2.04-.91 2.04-2.04v-33.84c0-.9.73-1.63 1.63-1.63h19.57c.9 0 1.63.73 1.63 1.63v33.84c0 1.13.91 2.04 2.04 2.04h8.97c1.13 0 2.04-.91 2.04-2.04v-44.86c0-1.13-.91-2.04-2.04-2.04h-32.21c-.9 0-1.63-.73-1.63-1.63z"/><path d="m308.19 23.82v44.85c0 1.13.91 2.04 2.04 2.04h44.85c1.13 0 2.04-.91 2.04-2.04v-44.85c0-1.13-.91-2.04-2.04-2.04h-44.85c-1.13 0-2.04.91-2.04 2.04zm34.25 35.48h-19.57c-.9 0-1.63-.73-1.63-1.63v-22.83c0-.9.73-1.63 1.63-1.63h19.57c.9 0 1.63.73 1.63 1.63v22.83c0 .9-.73 1.63-1.63 1.63z"/><path d="m427.46 23.57v33.84c0 .9-.73 1.63-1.63 1.63h-13.05c-.9 0-1.63-.73-1.63-1.63v-33.84c0-1.13-.91-2.04-2.04-2.04h-8.97c-1.13 0-2.04.91-2.04 2.04v33.84c0 .9-.73 1.63-1.63 1.63h-13.05c-.9 0-1.63-.73-1.63-1.63v-33.84c0-1.13-.91-2.04-2.04-2.04h-8.97c-1.13 0-2.04.91-2.04 2.04v44.85c0 1.13.91 2.04 2.04 2.04h67.69c1.13 0 2.04-.91 2.04-2.04v-44.85c0-1.13-.91-2.04-2.04-2.04h-8.97c-1.13 0-2.04.91-2.04 2.04z"/></g></svg>